<svg xmlns="http://www.w3.org/2000/svg" viewBox="0 0 792.3 102.5"><defs><style>.a{fill:#084579;}.b{fill:#fdd413;}</style></defs><path class="a" d="M215.1,84.7a29.7,29.7,0,0,1-6.2,9.3,28.6,28.6,0,0,1-9.3,6.2,29.39,29.39,0,0,1-11.4,2.3H132V73.9h13.2V89.2h42.9a15.23,15.23,0,0,0,11.3-4.6A15.39,15.39,0,0,0,204,73.3V57.8H131.9V29.2a29.39,29.39,0,0,1,2.3-11.4,29.7,29.7,0,0,1,6.2-9.3,28.6,28.6,0,0,1,9.3-6.2A29.39,29.39,0,0,1,161.1,0h56.2V23.1H204.1v-10H161.2a14.37,14.37,0,0,0-6.2,1.3,15.82,15.82,0,0,0-5,3.4,15.2,15.2,0,0,0-3.4,5.1,15.14,15.14,0,0,0-1.3,6.3V44.5h72.1V73.2A29.51,29.51,0,0,1,215.1,84.7Z"/><path class="a" d="M255.5,102.5a26.42,26.42,0,0,1-10.8-2.2,27.67,27.67,0,0,1-8.9-6.1,28.8,28.8,0,0,1-6.1-8.9,26.42,26.42,0,0,1-2.2-10.8V28.2a26.42,26.42,0,0,1,2.2-10.8,27.67,27.67,0,0,1,6.1-8.9,28.8,28.8,0,0,1,8.9-6.1A26.42,26.42,0,0,1,255.5.2h38.9a26.42,26.42,0,0,1,10.8,2.2,27.67,27.67,0,0,1,8.9,6.1,28.8,28.8,0,0,1,6.1,8.9,26.42,26.42,0,0,1,2.2,10.8V74.5a26.42,26.42,0,0,1-2.2,10.8,27.67,27.67,0,0,1-6.1,8.9,28.8,28.8,0,0,1-8.9,6.1,26.42,26.42,0,0,1-10.8,2.2Zm-15-28.1a13.88,13.88,0,0,0,1.2,5.7,16,16,0,0,0,8.1,8.1,13.88,13.88,0,0,0,5.7,1.2h38.9a14.35,14.35,0,0,0,5.8-1.2,13.71,13.71,0,0,0,4.8-3.3,17.51,17.51,0,0,0,3.2-4.8,13.88,13.88,0,0,0,1.2-5.7V28.1a14.35,14.35,0,0,0-1.2-5.8,14.71,14.71,0,0,0-8-8,14.7,14.7,0,0,0-5.8-1.2H255.5a13.88,13.88,0,0,0-5.7,1.2,17.51,17.51,0,0,0-4.8,3.2,13.71,13.71,0,0,0-3.3,4.8,14.7,14.7,0,0,0-1.2,5.8Z"/><path class="a" d="M350.2,100.2a27,27,0,0,1-9-6.1,29.24,29.24,0,0,1-6.1-9A27.5,27.5,0,0,1,332.9,74V0h13.2V74a14.48,14.48,0,0,0,1.2,5.9,16,16,0,0,0,8.1,8.1,14.48,14.48,0,0,0,5.9,1.2h41.2v13.2H361.3A25.92,25.92,0,0,1,350.2,100.2Z"/><path class="a" d="M425.7,102.5H412.5V0h13.2Z"/><path class="b" d="M453.5,100.2a29,29,0,0,1-9.2-6.1,27.4,27.4,0,0,1-6.1-9.2A28,28,0,0,1,436,73.7V28.5a27.84,27.84,0,0,1,2.2-11.1,28.54,28.54,0,0,1,6.1-9.1,27.4,27.4,0,0,1,9.2-6.1A28,28,0,0,1,464.7,0h47.1V13.1H464.7a16.17,16.17,0,0,0-6.1,1.2,14.12,14.12,0,0,0-4.9,3.3,16.27,16.27,0,0,0-3.3,4.9,15.31,15.31,0,0,0-1.2,6V73.7a15.37,15.37,0,0,0,15.5,15.5h47.1v13.2H464.7A26.37,26.37,0,0,1,453.5,100.2Z"/><path class="b" d="M549.9,102.5a26.42,26.42,0,0,1-10.8-2.2,27.67,27.67,0,0,1-8.9-6.1,28.8,28.8,0,0,1-6.1-8.9,26.42,26.42,0,0,1-2.2-10.8V28.2a26.42,26.42,0,0,1,2.2-10.8,27.67,27.67,0,0,1,6.1-8.9,28.8,28.8,0,0,1,8.9-6.1A26.42,26.42,0,0,1,549.9.2h38.9a27.23,27.23,0,0,1,10.9,2.2,27.67,27.67,0,0,1,8.9,6.1,28.8,28.8,0,0,1,6.1,8.9,26.42,26.42,0,0,1,2.2,10.8V74.5a26.42,26.42,0,0,1-2.2,10.8,27.67,27.67,0,0,1-6.1,8.9,28.8,28.8,0,0,1-8.9,6.1,26.55,26.55,0,0,1-10.9,2.2Zm-15-28.1a13.88,13.88,0,0,0,1.2,5.7,16,16,0,0,0,8.1,8.1,13.88,13.88,0,0,0,5.7,1.2h38.9a14.35,14.35,0,0,0,5.8-1.2,13.71,13.71,0,0,0,4.8-3.3,17.51,17.51,0,0,0,3.2-4.8,13.88,13.88,0,0,0,1.2-5.7V28.1a14.35,14.35,0,0,0-1.2-5.8,14.71,14.71,0,0,0-8-8,14.7,14.7,0,0,0-5.8-1.2H549.9a13.88,13.88,0,0,0-5.7,1.2,17.51,17.51,0,0,0-4.8,3.2,13.71,13.71,0,0,0-3.3,4.8,14.7,14.7,0,0,0-1.2,5.8Z"/><path class="b" d="M712.9,73.9A27.84,27.84,0,0,1,710.7,85a28.54,28.54,0,0,1-6.1,9.1,27.4,27.4,0,0,1-9.2,6.1,28,28,0,0,1-11.2,2.2h-57V0h57a28.32,28.32,0,0,1,11.2,2.2,29,29,0,0,1,9.2,6.1,27,27,0,0,1,6.1,9.1,27.84,27.84,0,0,1,2.2,11.1ZM640.5,89.2h43.7a15.37,15.37,0,0,0,15.5-15.3V28.6a15.31,15.31,0,0,0-1.2-6,15.12,15.12,0,0,0-3.3-4.9,13.69,13.69,0,0,0-4.9-3.3,15.44,15.44,0,0,0-6.1-1.2H640.5Z"/><path class="b" d="M792.2,102.5H723V29.3a29.39,29.39,0,0,1,2.3-11.4,29.7,29.7,0,0,1,6.2-9.3,28.6,28.6,0,0,1,9.3-6.2A29.39,29.39,0,0,1,752.2.1h40V13.2h-40a14.37,14.37,0,0,0-6.2,1.3,15.82,15.82,0,0,0-5,3.4,15.2,15.2,0,0,0-3.4,5.1,15.14,15.14,0,0,0-1.3,6.3V44.6h46.4V57.8H736.3V89.2h56v13.3Z"/><path class="b" d="M39.4,84.9v-21c0-2.7-.7-4.3-2-5s-3.7-1-7.2-1V42.6c3.5,0,5.9-.3,7.2-1s2-2.4,2-5v-19c0-7.4,1.5-12.3,4.5-14.8A15,15,0,0,1,50,.1H0V102.5H49.9a15,15,0,0,1-6.1-2.7C40.9,97.3,39.4,92.3,39.4,84.9Z"/><path class="b" d="M102.4,0H72.2V13.4h-14a4.09,4.09,0,0,0-2.2.4,2.35,2.35,0,0,0-.7,2V36.6c0,6.9-2.2,11.5-6.6,13.9q6.6,3.3,6.6,13.8V86.6c0,1,.2,1.7.7,2a4.09,4.09,0,0,0,2.2.4h14v13.4h30.2Z"/></svg>